<?xml version="1.0" encoding="UTF-8" standalone="no"?>
<svg
   width="29.999825"
   height="23.408001"
   viewBox="0 0 3.7499781 2.9260002"
   aria-hidden="true"
   role="img"
   class="iconify iconify--gis"
   preserveAspectRatio="xMidYMid"
   version="1.1"
   id="svg12"
   xmlns="http://www.w3.org/2000/svg"
   xmlns:svg="http://www.w3.org/2000/svg">
  <defs
     id="defs16" />
  <path
     d="m 1.219402,1.45e-4 c -0.258117,0 -0.470155,0.212038 -0.470155,0.470154 0,0.1506 0.07249,0.285203 0.183941,0.371479 L 0.556877,1.61935 A 0.46281219,0.46281219 0 0 0 0.470117,1.61095 C 0.212038,1.610988 0,1.823026 0,2.081143 c 0,0.258116 0.212038,0.470154 0.470155,0.470154 0.192183,0 0.357392,-0.118044 0.429433,-0.284827 l 1.920966,0.288836 c 0.04615,0.210877 0.235303,0.370654 0.459291,0.370654 0.249351,0 0.453821,-0.198439 0.467533,-0.444568 a 0.13111888,0.13111888 0 0 0 0.0026,-0.02562 0.13111888,0.13111888 0 0 0 -0.0027,-0.02622 C 3.733228,2.183723 3.528909,1.985621 3.279783,1.985621 c -0.005,0 -0.0099,5.62e-4 -0.01484,7.12e-4 L 3.007875,1.202654 c 0.12269,-0.07968 0.206381,-0.21526 0.21496,-0.369643 a 0.13111888,0.13111888 0 0 0 0.0026,-0.02562 0.13111888,0.13111888 0 0 0 -0.0027,-0.02622 C 3.208685,0.535342 3.004366,0.33724 2.75524,0.33724 c -0.189636,0 -0.354096,0.114635 -0.428197,0.277785 L 1.687108,0.445806 a 0.13111888,0.13111888 0 0 0 -3.75e-4,-0.0018 C 1.672723,0.198139 1.468401,0 1.219276,0 Z m 0,0.262237 c 0.116396,0 0.207917,0.09152 0.207917,0.207917 0,0.116397 -0.09152,0.207918 -0.207917,0.207918 -0.116397,0 -0.207917,-0.09152 -0.207917,-0.207918 0,-0.116396 0.09152,-0.207917 0.207917,-0.207917 z m 1.535964,0.337163 c 0.116396,0 0.207917,0.09152 0.207917,0.207917 0,0.116396 -0.09152,0.207917 -0.207917,0.207917 -0.116396,0 -0.207917,-0.09152 -0.207917,-0.207917 0,-0.116396 0.09152,-0.207917 0.207917,-0.207917 z M 1.626357,0.700994 2.290905,0.876693 c 0.0339,0.225599 0.229908,0.400924 0.464461,0.400924 l 0.0012,-7.5e-5 0.259241,0.79016 A 0.47532468,0.47532468 0 0 0 2.839545,2.293039 L 0.932103,2.006301 A 0.47244006,0.47244006 0 0 0 0.790232,1.739193 L 1.17767,0.938319 c 0.01379,0.0012 0.02761,0.0021 0.0417,0.0021 0.174275,0 0.326298,-0.0971 0.406955,-0.239498 z M 0.470151,1.873272 c 0.116396,0 0.207917,0.09156 0.207917,0.207954 0,0.116396 -0.09152,0.207917 -0.207917,0.207917 -0.116396,0 -0.207917,-0.09152 -0.207917,-0.207917 0,-0.116396 0.09152,-0.207917 0.207917,-0.207917 z m 2.80969,0.374625 c 0.116396,0 0.207917,0.09156 0.207917,0.207954 0,0.116397 -0.09152,0.207918 -0.207917,0.207918 -0.116396,0 -0.207917,-0.09152 -0.207917,-0.207918 0,-0.116396 0.09152,-0.207917 0.207917,-0.207917 z"
     fill="#000000"
     id="path10"
     style="stroke-width:0.0374625" />
</svg>
