<?xml version="1.0" encoding="UTF-8" standalone="no"?>
<!-- Uploaded to: SVG Repo, www.svgrepo.com, Generator: SVG Repo Mixer Tools -->

<svg
   width="24.0"
   height="24.0"
   viewBox="0 0 3.75 2.8533605"
   aria-hidden="true"
   role="img"
   class="iconify iconify--gis"
   preserveAspectRatio="xMidYMid"
   version="1.1"
   id="svg4"
   sodipodi:docname="draw-points.svg"
   inkscape:version="1.2.2 (732a01da63, 2022-12-09)"
   xmlns:inkscape="http://www.inkscape.org/namespaces/inkscape"
   xmlns:sodipodi="http://sodipodi.sourceforge.net/DTD/sodipodi-0.dtd"
   xmlns="http://www.w3.org/2000/svg"
   xmlns:svg="http://www.w3.org/2000/svg">
  <sodipodi:namedview
     id="namedview8"
     pagecolor="#ffffff"
     bordercolor="#000000"
     borderopacity="0.25"
     inkscape:showpageshadow="2"
     inkscape:pageopacity="0.0"
     inkscape:pagecheckerboard="0"
     inkscape:deskcolor="#d1d1d1"
     showgrid="false"
     inkscape:zoom="9.6581068"
     inkscape:cx="15.065064"
     inkscape:cy="9.2668265"
     inkscape:window-width="3840"
     inkscape:window-height="1051"
     inkscape:window-x="-9"
     inkscape:window-y="-9"
     inkscape:window-maximized="1"
     inkscape:current-layer="svg4" />
  <defs
     id="defs8" />
  <g
     id="g172"
     transform="scale(0.25516722)">
    <path
       d="m 4.223041,0 c -1.029382,0 -1.875,0.845617 -1.875,1.87485 0,1.029383 0.845618,1.875 1.875,1.875 0.994273,0 1.809562,-0.790936 1.864542,-1.772211 A 0.52290837,0.52290837 0 0 0 6.098043,1.87485 0.52290837,0.52290837 0 0 0 6.087583,1.771613 C 6.032303,0.790338 5.217015,0 4.223041,0 Z m 0,1.045816 c 0.464193,0 0.829183,0.364841 0.829183,0.829034 0,0.464194 -0.36499,0.829184 -0.829183,0.829184 -0.464193,0 -0.829183,-0.36499 -0.829183,-0.829184 0,-0.464193 0.36499,-0.829034 0.829183,-0.829034 z"
       fill="#000000"
       id="path2"
       style="stroke-width:0.149402" />
    <path
       d="m 11.204881,0.967022 c -1.029382,0 -1.875,0.845617 -1.875,1.87485 0,1.029383 0.845618,1.875 1.875,1.875 0.994273,0 1.809562,-0.790936 1.864542,-1.772211 a 0.52290837,0.52290837 0 0 0 0.01046,-0.102789 0.52290837,0.52290837 0 0 0 -0.01046,-0.103237 C 13.014143,1.75736 12.198855,0.967022 11.204881,0.967022 Z m 0,1.045816 c 0.464193,0 0.829183,0.364841 0.829183,0.829034 0,0.464194 -0.36499,0.829184 -0.829183,0.829184 -0.464193,0 -0.829183,-0.36499 -0.829183,-0.829184 0,-0.464193 0.36499,-0.829034 0.829183,-0.829034 z"
       fill="#000000"
       id="path2-7"
       style="stroke-width:0.149402" />
    <path
       d="m 12.821243,7.432466 c -1.029382,0 -1.875,0.845617 -1.875,1.87485 0,1.029383 0.845618,1.875 1.875,1.875 0.994273,0 1.809562,-0.790936 1.864542,-1.772211 a 0.52290837,0.52290837 0 0 0 0.01046,-0.102789 0.52290837,0.52290837 0 0 0 -0.01046,-0.103237 C 14.630505,8.222804 13.815217,7.432466 12.821243,7.432466 Z m 0,1.045816 c 0.464193,0 0.829183,0.364841 0.829183,0.829034 0,0.464194 -0.36499,0.829184 -0.829183,0.829184 -0.464193,0 -0.829183,-0.36499 -0.829183,-0.829184 0,-0.464193 0.36499,-0.829034 0.829183,-0.829034 z"
       fill="#000000"
       id="path2-75"
       style="stroke-width:0.149402" />
    <path
       d="M 1.875,6.716357 C 0.845618,6.716357 0,7.561974 0,8.591207 c 0,1.029383 0.845618,1.875 1.875,1.875 0.994273,0 1.809562,-0.790936 1.864542,-1.772211 A 0.52290837,0.52290837 0 0 0 3.750002,8.591207 0.52290837,0.52290837 0 0 0 3.739542,8.48797 C 3.684262,7.506695 2.868974,6.716357 1.875,6.716357 Z m 0,1.045816 c 0.464193,0 0.829183,0.364841 0.829183,0.829034 0,0.464194 -0.36499,0.829184 -0.829183,0.829184 -0.464193,0 -0.829183,-0.36499 -0.829183,-0.829184 0,-0.464193 0.36499,-0.829034 0.829183,-0.829034 z"
       fill="#000000"
       id="path2-1"
       style="stroke-width:0.149402" />
  </g>
</svg>
