<svg fill="#ffffff" height="24px" width="24px" version="1.1" id="Capa_1" xmlns="http://www.w3.org/2000/svg" xmlns:xlink="http://www.w3.org/1999/xlink" viewBox="0 0 433.654 433.654" xml:space="preserve" stroke="#ffffff" stroke-width="6.504809999999999">
	<g id="SVGRepo_bgCarrier" stroke-width="0">
	</g>
	<g id="SVGRepo_tracerCarrier" stroke-linecap="round" stroke-linejoin="round">
	</g>
	<g id="SVGRepo_iconCarrier">
		<path id="XMLID_421_" d="M394.264,80.435c0-18.813-15.307-34.119-34.121-34.119c-18.813,0-34.118,15.306-34.118,34.119 s15.306,34.119,34.118,34.119C378.957,114.554,394.264,99.248,394.264,80.435z M344.024,80.435c0-8.888,7.23-16.119,16.118-16.119 c8.89,0,16.121,7.231,16.121,16.119s-7.231,16.119-16.121,16.119C351.255,96.554,344.024,89.323,344.024,80.435z M335.646,199.778 c3.546,7.438,8.904,18.677,24.496,18.677c15.591,0,20.95-11.237,24.496-18.672c0.46-0.963,9.37-18.556,9.37-18.556 c19.182-37.698,39.646-79.686,39.646-100.792c0-40.533-32.978-73.51-73.512-73.51c-40.533,0-73.509,32.977-73.509,73.51 c0,21.11,20.463,63.096,39.644,100.792C326.277,181.227,335.188,198.816,335.646,199.778z M360.143,24.925 c30.609,0,55.512,24.901,55.512,55.51c0,18.559-25.455,68.587-37.688,92.63c0,0-9.058,17.887-9.574,18.969 c-3.603,7.555-4.451,8.421-8.249,8.421c-3.797,0-4.646-0.866-8.248-8.423c-0.516-1.081-9.574-18.968-9.574-18.968 c-12.232-24.041-37.687-74.067-37.687-92.629C304.634,49.826,329.535,24.925,360.143,24.925z M396.063,215.199c-4.971,0-9,4.029-9,9 c0,14.65-1.715,28.902-4.957,42.576c-35.125,7.549-71.319,12.826-108.217,15.79c1.415-18.803,2.153-38.386,2.153-58.365 c0-17.28-0.552-34.257-1.616-50.697c2.841-0.258,5.671-0.531,8.495-0.82c4.944-0.505,8.544-4.923,8.038-9.868 c-0.506-4.944-4.927-8.552-9.868-8.038c-2.676,0.273-5.358,0.532-8.05,0.778c-3.813-42.447-11.128-80.407-21.214-109.229 c3.542,0.979,7.057,2.066,10.54,3.26c4.703,1.608,9.819-0.895,11.432-5.598c1.61-4.702-0.896-9.82-5.598-11.431 c-21.089-7.225-43.184-10.888-65.67-10.888c-12.242,0-24.231,1.091-35.881,3.183c-0.263,0.036-0.524,0.083-0.783,0.142 C99.31,37.211,44.026,82.084,17.293,142.322c-0.279,0.499-0.514,1.03-0.698,1.591C5.921,168.54,0,195.693,0,224.199 c0,17.981,2.356,35.425,6.775,52.035c0.067,0.316,0.15,0.627,0.25,0.933c20.215,74.53,82.014,132.135,158.839,146.238 c0.26,0.059,0.523,0.107,0.788,0.143c11.649,2.091,23.637,3.182,35.878,3.182s24.236-1.092,35.886-3.184 c0.259-0.036,0.515-0.082,0.769-0.14c76.831-14.104,138.646-71.721,158.857-146.26c0.095-0.292,0.175-0.59,0.239-0.892 c4.422-16.615,6.78-34.067,6.78-52.055C405.063,219.228,401.033,215.199,396.063,215.199z M258.042,224.199 c0,20.49-0.784,40.515-2.283,59.632c-17.608,1.047-35.366,1.573-53.228,1.573c-17.862,0-35.62-0.526-53.229-1.573 c-1.499-19.117-2.283-39.143-2.283-59.632c0-16.811,0.528-33.313,1.545-49.254c17.733,1.188,35.732,1.783,53.966,1.783 c18.072,0,36.136-0.607,53.964-1.809C257.514,190.868,258.042,207.377,258.042,224.199z M174.181,41.842 c9.244-1.431,18.711-2.174,28.35-2.174c9.545,0,19.013,0.724,28.343,2.162c11.675,28.187,20.096,68.747,24.248,115.142 c-17.373,1.167-34.975,1.757-52.591,1.757c-17.771,0-35.319-0.579-52.593-1.731C154.088,110.6,162.508,70.036,174.181,41.842z M153.223,46.356c-10.081,28.826-17.395,66.791-21.205,109.23c-32.429-2.945-63.84-7.952-93.971-14.99 C61.317,95.005,103.001,60.299,153.223,46.356z M139.361,347.719c-23.089-11.856-42.442-29.997-55.783-52.151 c16.243,2.178,32.654,3.905,49.198,5.177C134.45,317.242,136.659,332.99,139.361,347.719z M18,224.199 c0-23.575,4.446-46.137,12.54-66.881c32.056,7.671,65.524,13.088,100.095,16.217c-1.063,16.426-1.614,33.4-1.614,50.665 c0,19.978,0.738,39.563,2.153,58.365c-19.333-1.553-38.469-3.74-57.362-6.557c-6.469-16.015-10.032-33.503-10.032-51.808 c0-4.971-4.029-9-9-9s-9,4.029-9,9c0,16.924,2.697,33.233,7.682,48.514c-10.249-1.792-20.421-3.771-30.504-5.938 C19.715,253.101,18,238.849,18,224.199z M28.778,286.376c10.771,2.18,21.627,4.15,32.575,5.914 c16.912,34.927,46.402,62.662,82.559,77.291c2.763,11.759,5.876,22.638,9.311,32.46C95.393,385.986,48.891,342.415,28.778,286.376z M230.88,406.556c-9.244,1.431-18.71,2.174-28.349,2.174s-19.106-0.743-28.35-2.174c-3.705-8.949-7.082-19.142-10.099-30.375 c12.308,3.116,25.186,4.77,38.449,4.77c4.971,0,9-4.029,9-9s-4.029-9-9-9c-15.092,0-29.626-2.421-43.24-6.897 c-3.481-16.549-6.283-34.75-8.325-54.096c34.137,1.926,68.992,1.926,103.129,0C249.664,343.939,241.658,380.524,230.88,406.556z M251.839,402.042c9.449-27.018,16.467-62.06,20.446-101.296c35.386-2.72,70.15-7.521,103.999-14.369 C356.172,342.415,309.669,385.986,251.839,402.042z">
		</path>
	</g>
</svg>
