<?xml version="1.0" encoding="UTF-8" standalone="no"?>
<!-- Created with Inkscape (http://www.inkscape.org/) -->
<svg width="24" height="24" viewBox="0 0 6.3499999 6.35" version="1.1" id="svg5" xml:space="preserve" inkscape:version="1.2.2 (732a01da63, 2022-12-09)" sodipodi:docname="info-query.svg" xmlns:inkscape="http://www.inkscape.org/namespaces/inkscape" xmlns:sodipodi="http://sodipodi.sourceforge.net/DTD/sodipodi-0.dtd" xmlns="http://www.w3.org/2000/svg" xmlns:svg="http://www.w3.org/2000/svg">
	<namedview id="namedview7" pagecolor="#ffffff" bordercolor="#000000" borderopacity="0.25" inkscape:showpageshadow="2" inkscape:pageopacity="0.0" inkscape:pagecheckerboard="0" inkscape:deskcolor="#d1d1d1" inkscape:document-units="mm" showgrid="false" showguides="false" inkscape:lockguides="false" inkscape:zoom="49.260606" inkscape:cx="22.67532" inkscape:cy="19.234437" inkscape:window-width="1450" inkscape:window-height="979" inkscape:window-x="1753" inkscape:window-y="32" inkscape:window-maximized="0" inkscape:current-layer="g15" />
	<defs id="defs2" />
	<g inkscape:label="Layer 1" inkscape:groupmode="layer" id="layer1">
		<g style="fill:#000000" id="g26" transform="matrix(0,0.01760733,-0.01700354,0,5.2943551,0.58649827)">
			<g id="g15" transform="matrix(1.0960428,0,0,1.1764741,-29.842806,-30.812612)">
				<path d="m 163.207,181.637 42.749,-24.76 c 3.358,-1.945 5.309,-5.635 5.029,-9.504 -0.28,-3.867 -2.743,-7.238 -6.344,-8.68 L 13.9,62.416 C 10.141,60.912 5.843,61.791 2.976,64.654 0.109,67.515 -0.779,71.81 0.718,75.572 L 76.783,266.85 c 1.436,3.613 4.81,6.084 8.688,6.365 3.896,0.272 7.571,-1.685 9.512,-5.051 l 24.658,-42.816 59.882,60.053 c 1.903,1.906 4.483,2.978 7.179,2.978 2.692,0 5.275,-1.072 7.176,-2.98 l 29.257,-29.342 c 3.945,-3.957 3.945,-10.359 0,-14.313 z m 23.495,82.252 -62.057,-62.232 c -1.916,-1.918 -4.504,-2.979 -7.177,-2.979 -0.44,0 -0.881,0.029 -1.323,0.086 -3.127,0.414 -5.888,2.258 -7.461,4.992 l -20.81,36.131 -59.605,-149.893 149.497,59.783 -36.117,20.92 c -2.722,1.576 -4.556,4.326 -4.969,7.445 -0.409,3.119 0.651,6.254 2.872,8.479 l 62.093,62.277 z" id="path9" />
				<path d="m 94.769648,31.584548 c 0,31.988065 29.754402,58.013432 66.324632,58.013432 5.98295,0 10.83582,-4.246361 10.83582,-9.480431 0,-5.23688 -4.85287,-9.481366 -10.83582,-9.481366 -24.62356,0 -44.65193,-17.51955 -44.65193,-39.051635 0,-21.533021 20.0273,-39.0516318 44.65193,-39.0516318 24.61715,0 44.64979,17.5186108 44.64979,39.0516318 0,5.235005 4.84858,9.480435 10.83582,9.480435 h 55.48347 c 5.98509,0 10.83582,-4.24543 10.83582,-9.480435 0,-5.235942 -4.85073,-9.48044 -10.83582,-9.48044 h -45.53077 c -5.18965,-27.4938378 -32.55985,-48.531137 -65.43831,-48.531137 -36.57023,0 -66.324632,26.02444415 -66.324632,58.011577 z" id="path11" />
				<path d="m 290.24051,31.63429 c 0,2.49264 1.15896,4.93851 3.17644,6.70159 2.02604,1.76309 4.81117,2.77885 7.66152,2.77885 2.86105,0 5.65687,-1.01576 7.67222,-2.77885 2.01534,-1.76308 3.17644,-4.20895 3.17644,-6.70159 0,-2.49451 -1.1611,-4.93944 -3.17644,-6.70346 -2.01535,-1.77244 -4.81117,-2.77698 -7.67222,-2.77698 -2.85035,0 -5.63548,1.00454 -7.66152,2.77698 -2.01748,1.76402 -3.17644,4.20895 -3.17644,6.70346 z" id="path13" />
			</g>
			<path style="fill:none;stroke-width:12.0104" d="m 100.17345,-0.58363361 c 6.45611,3.82987521 9.87759,9.85428881 14.21085,15.39374161 1.99685,2.552687 4.44914,4.77477 6.39488,7.362228 4.31378,5.736496 8.90731,12.935998 12.07923,19.409516 0.10147,0.206905 3.39688,7.297651 3.55271,8.031514 0.13934,0.656266 -0.50242,1.534624 0,2.007882 0.37447,0.352728 1.10335,0.270199 1.42108,0.669321 1.66672,2.093265 1.4236,5.135179 2.84218,7.362216 0.34464,0.541098 1.08875,0.790666 1.42108,1.338595 1.90207,3.1354 2.02386,6.79918 3.55271,10.039395 0.27213,0.576652 1.07638,0.797544 1.42108,1.338584 1.81197,2.844638 2.33723,5.548009 4.97381,8.031526 0.50242,0.473257 1.4961,-0.299341 2.13163,0 3.42977,1.615334 -0.47013,1.116467 2.84216,2.007881 1.38526,0.372778 2.92561,0.165291 4.26326,0.669321 2.09744,0.790316 2.71407,1.278261 4.26326,2.007882 0.56838,0.267751 1.56318,-0.267752 2.13161,0 1.65897,0.78134 1.58986,1.699728 3.55273,2.007881 2.56574,0.402851 5.31572,0.396557 7.81597,1.338584 1.86492,0.702658 3.90067,2.047129 5.68434,2.677179 1.02774,0.362986 9.47971,2.680466 10.65813,3.346465 0.45416,0.256678 0.3361,0.985797 0.71057,1.338584 0.13093,0.123326 2.0007,0.545994 2.13162,0.669321 2.79676,2.634399 0.0297,1.359483 2.84217,3.346465 1.4825,1.047342 3.64413,2.266192 4.26326,4.015762 0.14974,0.42325 -0.26272,0.96738 0,1.33858 0.29378,0.4151 1.04655,0.3166 1.42108,0.66933 0.37447,0.35272 0.33611,0.98579 0.71057,1.33858 0.16744,0.15771 0.57915,-0.18557 0.71058,0 0.41542,0.58702 0.29514,1.42087 0.71057,2.00788 1.26319,1.78479 0.23525,-2.68182 1.42108,0.66932 0.14974,0.42325 -0.21186,0.93952 0,1.33858 0.10642,0.19957 0.54301,-0.15771 0.71057,0 0.0681,0.0641 2.55702,2.80928 2.84217,3.34647 0.54375,1.02426 1.54578,2.24278 2.13162,3.34647 0.41692,0.7853 0.0116,2.68805 0.71058,3.34646 0.16743,0.15771 0.54301,-0.15771 0.71057,0 0.57915,0.54553 0.96698,3.8295 1.42109,4.68506 0.2996,0.56441 1.20929,0.73996 1.42108,1.33858 0.53955,1.52469 0.009,3.35528 1.42109,4.68505 0.16743,0.15772 0.54301,-0.15771 0.71057,0 0.43015,0.40519 0,3.52832 0,4.01577 0,6.91603 0,13.83206 0,20.74808 0,3.11292 0.54969,6.93289 0,10.03941 -0.39761,2.24744 -1.02341,4.44543 -1.42108,6.69293 -0.15581,0.88025 0.42372,1.879 0,2.67718 -0.14974,0.28219 -0.62927,0.3632 -0.71058,0.66929 -0.82145,3.09481 0,12.21263 0,16.06305 0,2.68347 -0.89273,8.85537 0,11.37798 0.45503,1.28584 1.41491,0.99522 2.13163,2.00788 0.26272,0.37126 -0.24366,0.95598 0,1.33859 0.84794,1.33116 7.74343,7.99735 9.23705,8.70081 0.66986,0.31551 1.53245,0.246 2.13163,0.6693 0.42372,0.29932 0.3715,0.95535 0.71057,1.33859 1.28659,1.45428 2.65549,2.87993 4.26326,4.01576 0.42372,0.29931 1.04656,0.31654 1.4211,0.66929 0.37446,0.35275 0.3361,0.98585 0.71057,1.33859 0.37447,0.35275 1.04655,0.31655 1.42108,0.6693 0.052,0.0492 1.71006,2.63554 2.84218,3.34646 1.59872,1.00394 2.4869,0.6693 4.26325,2.00788 0.41358,0.31164 0.47372,0.8924 0.71058,1.33859 0.71057,0.44619 1.38513,0.94794 2.13163,1.33859 3.34233,1.74905 7.68042,4.3121 11.36867,5.35435 0.25196,0.0712 6.23753,0.84807 7.10543,1.33858 0.45416,0.25667 0.23685,1.11549 0.71057,1.33859 0.59214,0.27887 2.76322,-0.18591 3.55271,0 3.2093,0.75574 6.05408,3.41612 9.23705,4.01576 0.69671,0.13126 1.47191,-0.24857 2.13163,0 0.62197,0.23435 0.82195,1.05639 1.42109,1.33859 0.87343,0.41137 1.94458,0.30694 2.84217,0.66929 0.78494,0.31686 1.36782,0.97885 2.13163,1.33859 1.61335,0.75985 3.40167,1.1749 4.97379,2.00788 6.10305,3.23367 11.75485,7.31276 17.76357,10.70869 5.32906,3.01182 0.71057,-0.66929 8.52651,4.01576 0.84781,0.50817 1.34696,1.41659 2.13162,2.00788 0.46616,0.35131 5.52292,2.67718 5.68434,2.67718" id="path358" />
			<path style="fill:none;stroke-width:12.0104" d="m 78.146633,-52.788515 c 7.007677,-2.663494 20.941631,-1.731597 27.711157,1.338584 4.20891,1.90887 8.02335,4.509839 12.07922,6.692942 7.76957,4.182009 13.3087,7.263963 18.47411,14.724444 6.4522,9.319018 5.37643,23.3134922 5.68434,33.4646742 0.11756,3.8912471 0.59363,8.8025388 0,12.7165748 -0.54858,3.617294 -1.88577,7.003414 -2.13163,10.708693 -0.29551,4.453257 0,8.923906 0,13.38586 0,4.286126 -0.77839,9.847726 0.71057,14.055158 0.65118,1.840306 3.27936,8.474196 4.9738,10.708705 0.5841,0.770267 1.54756,1.237661 2.13162,2.007869 0.61566,0.811881 0.743,1.910701 1.42109,2.677179 0.85028,0.961202 4.05021,2.133435 4.9738,2.677168 2.93971,1.730664 5.54944,4.421225 8.52651,6.023644 0.41122,0.221359 0.99742,-0.199561 1.42108,0 0.59919,0.282206 0.88518,0.95992 1.42109,1.338584 0.42372,0.299341 1.04655,0.316593 1.42108,0.669321 0.16744,0.157713 -0.18946,0.535387 0,0.669321 0.84732,0.598682 1.9339,0.825286 2.84217,1.338583 1.85706,1.049559 3.20662,2.906033 4.9738,4.015763 1.33066,0.835544 2.22204,0.502982 3.55271,1.338584 0.84138,0.528393 1.92009,1.718367 2.84217,2.007881 4.87781,1.531547 -3.30962,-2.562688 3.55272,0.669321 1.56237,0.73588 5.93452,2.611192 7.10542,3.346477 0.83606,0.525013 1.34697,1.41659 2.13163,2.00787 1.0348,0.779709 2.41239,0.801506 3.55271,1.338595 0.78519,0.369747 2.10776,1.546689 2.84217,2.007882 0.95671,0.60078 3.04203,2.384388 3.55271,3.346468 0.21186,0.39912 -0.33499,1.02309 0,1.33858 0.37446,0.35273 1.12736,0.25423 1.42109,0.66932 0.26272,0.37126 -0.21186,0.93952 0,1.33859 0.10643,0.19956 0.54301,-0.15772 0.71057,0 0.62086,0.58481 1.14357,2.82371 1.4211,3.34646 0.85399,1.60878 1.85972,3.14271 2.84216,4.68505 2.21783,3.4818 -0.57185,-1.20789 1.42108,0.66932 0.0235,0.0222 2.05822,4.47758 2.13163,4.68505 0.82875,2.3421 0.16657,13.28658 0.71057,14.05517 0.29379,0.41509 1.04656,0.31659 1.42108,0.66932 0.46951,0.44225 0.71058,6.69012 0.71058,8.03153 0,7.36056 0.457,15.01032 -1.42109,22.08667 -0.88456,3.33272 0,13.8393 0,18.07092 0,3.35327 -0.86327,8.12539 0,11.37799 0.58633,2.20928 1.77734,4.35692 2.13162,6.69293 0.20097,1.32514 -0.34464,2.71714 0,4.01576 0.16248,0.61218 1.04952,0.81355 1.4211,1.33859 0.93319,1.31862 2.11434,3.3139 2.84216,4.68505 2.77182,5.22182 -1.14852,0.25675 2.84218,4.01576 0.16743,0.15775 -0.16744,0.51154 0,0.6693 0.23574,0.22202 2.42262,1.14099 2.84216,1.33859 1.35804,0.63959 4.07331,2.96709 5.68434,3.34646 0.68929,0.16233 1.45755,-0.21164 2.13163,0 0.22473,0.0705 -0.19701,0.54554 0,0.6693 1.00485,0.63102 2.54785,0.0382 3.55271,0.6693 0.44067,0.27671 0.3361,0.98584 0.71057,1.33859 1.28436,1.20979 2.65189,0.41632 4.26326,0.66929 1.64035,0.25752 3.37955,1.50732 4.97379,2.00788 0.63954,0.20079 1.49214,-0.20078 2.13163,0 0.31779,0.0998 0.39278,0.56952 0.71057,0.6693 2.12872,0.66839 4.88904,-0.41754 7.10542,0 0.73446,0.13837 1.3972,0.53094 2.13163,0.6693 0.92899,0.17501 1.96254,-0.33143 2.84217,0 3.50737,1.3215 0.66144,1.44243 4.26325,2.00788 4.00376,0.62856 8.74645,0 12.78977,0 5.32328,0 11.0615,-0.55271 16.34248,0 1.20025,0.12562 2.34809,0.58825 3.55271,0.6693 4.07942,0.27446 14.78715,-0.94716 18.4741,0 1.74022,0.44705 3.26259,1.47059 4.97381,2.00788 10.06788,3.16114 2.11741,-0.34134 8.5265,2.67717" id="path360" />
			<path style="fill:none;stroke-width:12.0104" d="m 137.8322,13.471524 c 4.96694,5.263426 7.3647,7.638909 12.07923,13.385873 1.96976,2.401116 3.96409,4.796625 5.68434,7.362227 2.54525,3.796037 3.89678,8.223533 6.39487,12.047277 0.52668,0.806053 1.54757,1.237661 2.13163,2.007882 0.61566,0.811881 0.87615,1.821632 1.4211,2.677167 1.07749,1.69165 3.75039,3.244575 4.97379,4.68506 0.93604,1.10213 1.42041,4.014481 2.13163,5.354347 0.81774,1.540639 0.83345,-0.291764 2.13163,1.338584 0.44933,0.564411 0.26111,1.443481 0.71057,2.007881 2.5912,3.254355 0.49599,-1.229152 2.13163,1.338584 0.83407,1.30936 1.31875,4.205823 2.13163,5.354346 0.55737,0.787519 1.68224,1.161229 2.13163,2.007882 0.51962,0.978803 0.21346,2.410045 0.71057,3.346465 1.95481,3.682664 1.44619,0.189186 2.13163,5.354346 0.11756,0.885551 -0.66986,2.046162 0,2.677179 1.07241,1.01016 2.56574,1.592558 3.55271,2.677168 1.32465,1.45572 2.1772,5.548312 3.55271,7.362228 0.5841,0.770267 1.50389,1.268772 2.13163,2.007881 3.04291,3.582839 5.00708,8.062879 8.5265,11.377989 1.07242,1.01016 2.48035,1.66706 3.55271,2.67717 0.6039,0.56884 0.81725,1.43909 1.4211,2.00788 0.16743,0.15771 0.54301,-0.15771 0.71057,0 0.16743,0.15771 0,0.44621 0,0.66932 0.47371,0.44622 0.86365,0.9886 1.42109,1.33859 0.19701,0.12379 0.54302,-0.15772 0.71057,0 0.32039,0.30178 1.43519,2.68381 2.84218,3.34646 0.21186,0.10025 0.54301,-0.15771 0.71057,0 0.52965,0.4989 0.37558,1.37686 0.71057,2.00788 1.73222,3.26331 0.54834,0.72761 1.42109,4.01576 0.0817,0.30611 0.62926,0.36322 0.71057,0.66933 0.78395,2.95395 0,15.81783 0,18.74021 0,14.72446 0,29.44892 0,44.17336 0,4.68506 0,9.37011 0,14.05516 0,1.56169 -0.35962,3.16056 0,4.68506 1.35819,5.75708 2.45617,4.60004 6.39487,9.3701 0.45986,0.55689 0.29515,1.42087 0.71057,2.00788 4.12274,5.8251 13.85515,9.24131 20.60573,10.7087 1.4038,0.30514 2.88334,0.27935 4.26326,0.66929 5.83128,1.64783 -0.37298,1.37039 6.39489,2.00788 12.48349,1.17588 -6.72751,-1.6139 7.81597,0.6693 7.13703,1.12046 15.0145,1.54504 22.02681,3.34647 2.68795,0.69052 4.4632,2.05496 7.10542,2.67717 2.84218,0.6693 -2.84216,-1.33858 2.13163,0 1.22636,0.33006 2.32633,1.00853 3.55271,1.33859 0.91092,0.24516 1.94341,-0.2822 2.84218,0 0.31779,0.0998 0.39278,0.56952 0.71057,0.6693 1.18849,0.37317 3.14302,-0.5276 4.26326,0 0.2996,0.1411 0.47371,0.44619 0.71057,0.66929" id="path362" />
			<path style="fill:none;stroke-width:12.0104" d="m 255.07172,233.66904 c -5.95273,-11.71599 -22.43468,-11.63368 -28.4217,-23.42527 -12.21738,-24.06243 -9.94759,-30.98306 -9.94759,-55.55134 0,-5.35435 -0.85153,-10.76912 0,-16.06304 1.58757,-9.86973 13.64561,-9.37011 21.31627,-9.37011 2.60532,0 5.69593,-1.42641 7.81597,0 3.4745,2.3377 4.987,6.54736 7.10542,10.03939 10.53668,17.36872 7.81597,39.8805 7.81597,58.89782 0,13.38587 -0.35516,26.77591 0,40.1576 0.0891,3.35285 0.71057,6.6855 0.71057,10.0394 0,0.2231 -0.48943,0.0801 -0.71057,0 -2.87379,-1.04114 -5.7967,-2.0049 -8.52651,-3.34647 -10.76267,-5.28931 -21.52702,-13.19865 -26.29007,-24.09456 -1.47984,-3.38526 -1.42109,-8.07462 -1.42109,-12.04728" id="path364" />
			<path style="fill:none;stroke-width:12.0104" d="m 233.75544,194.85002 25.57953,24.76386" id="path366" />
			<path style="fill:none;stroke-width:12.0104" d="m 254.36117,245.04702 51.86961,10.0394" id="path368" />
			<path style="fill:none;stroke-width:12.0104" d="m 111.54213,4.7707129 c 2.36848,0.446214 4.91665,0.3765076 7.10543,1.3385837 1.51764,0.6671062 2.2599,2.3436143 3.5527,3.3464651 2.74245,2.1273733 5.83774,3.8363333 8.52652,6.0236443 9.81996,7.988536 18.55595,17.478731 27.71115,26.102446 7.38703,6.958176 9.68286,7.63779 17.76357,14.724444 10.67976,9.365995 19.45762,19.933107 29.13225,30.11821 1.78675,1.881034 4.01038,3.383381 5.68434,5.354346 2.13386,2.512495 3.49755,5.559712 5.68434,8.031514 1.39791,1.580124 3.31586,2.677184 4.97379,4.015764 4.5001,5.80054 9.34363,11.37799 13.50031,17.40162 15.05523,21.81729 -4.3525,-2.92289 8.52651,18.74022 1.64475,2.76655 4.37514,4.82557 6.39488,7.36223 6.34574,7.9698 12.17612,16.30533 17.76356,24.76385 11.22621,16.99471 1.03567,6.2344 14.92139,22.75597 4.75626,5.65912 5.23998,4.26012 11.36868,8.70082 1.06203,0.76947 1.6933,2.02786 2.84218,2.67717 3.21121,1.81488 7.21604,1.95692 10.65813,3.34647 6.33143,2.55594 0.88296,1.39947 6.39489,3.34646 1.88336,0.66527 3.62932,0.74147 4.97379,2.00788" id="path370" />
			<path style="fill:none;stroke-width:12.0104" d="m 260.04551,178.11769 c -14.5017,-17.37722 -29.65567,-34.22278 -43.34308,-52.20488 -5.5513,-7.29311 -11.02068,-14.64335 -16.34249,-22.08668 -7.32822,-10.249611 -14.6811,-21.129621 -19.18465,-32.795378 -1.05224,-2.725659 -2.98048,-7.972951 0,-8.700811 5.77282,-1.409771 11.8158,-1.597943 17.76357,-2.007882 3.60733,-0.248635 17.43793,-0.285003 21.31628,1.338584 3.54977,1.486098 6.38264,4.211057 9.23705,6.692942 3.32496,2.891019 6.93506,5.700593 9.23705,9.370097 6.89681,10.993965 8.88705,20.982199 14.21085,32.126088 0.83754,1.75318 3.13413,3.0897 4.26326,4.68505 1.89278,2.67435 2.07328,18.83718 1.42108,21.41739 -0.6628,2.62239 -1.93668,5.13744 -3.55271,7.36223 -7.23366,9.95852 -18.92113,9.58391 -29.84279,13.38586 -10.45726,3.64029 -19.43292,10.30148 -30.55333,12.04728" id="path372" />
			<path style="fill:none;stroke-width:12.0104" d="m 217.41296,156.03101 v -0.66932" id="path374" />
			<path style="fill:none;stroke-width:8.36071" d="m 204.66604,218.81801 c 0.29945,11.36365 -0.52052,22.77349 0,34.12803 0.3531,7.70273 0.0541,9.89509 3.94348,15.42775 0.4557,0.64832 0.716,1.58065 1.47881,1.87003 1.85596,0.70409 3.91776,0.86215 5.91522,0.93501 7.64123,0.27874 7.43702,-0.0646 12.81631,-5.61009 1.98072,-2.04189 4.11398,-4.06344 5.42229,-6.5451 7.82554,-14.84372 14.03366,-33.73183 15.28099,-50.49079 0.56688,-7.61701 0.21755,-15.2747 0,-22.90787 -0.11135,-3.90692 -0.11049,-7.86854 -0.98587,-11.68769 -0.78442,-3.42204 -2.52331,-6.58505 -3.94348,-9.81765 -4.13728,-9.41726 -10.30159,-16.33112 -19.22447,-21.97284 -1.89932,-1.2009 -3.73848,-2.62063 -5.91523,-3.27256 -4.14844,-1.24246 -8.49033,-1.90106 -12.81631,-2.33754 -3.43118,-0.3462 -6.90109,0 -10.35163,0 -2.30037,0 -4.64844,-0.44204 -6.90109,0 -12.30294,2.41413 -21.52867,13.97813 -28.59025,22.90787 -2.10986,2.66802 -4.54446,5.11952 -6.40816,7.94762 -2.25918,3.42823 -4.00892,7.13674 -5.91522,10.75267 -1.70916,3.24199 -3.3404,6.52113 -4.92936,9.81766 -2.19006,4.54365 -6.09747,10.89999 0.49296,14.02522" id="path376" />
		</g>
	</g>
</svg>
