<svg height="24px" width="24px" version="1.1" id="Layer_1" xmlns="http://www.w3.org/2000/svg" xmlns:xlink="http://www.w3.org/1999/xlink" viewBox="0 0 512 512" xml:space="preserve" fill="#000000">
	<g id="" stroke-width="0">
	</g>
	<g id="" stroke-linecap="round" stroke-linejoin="round">
	</g>
	<g id="">
		<g transform="translate(1)">
			<polygon style="fill:#B0B6BB;" points="365.933,145.067 365.933,8.533 7.533,8.533 7.533,366.933 144.067,366.933 144.067,503.467 502.467,503.467 502.467,145.067 ">
			</polygon>
			<polygon style="fill:#556080;" points="144.067,366.933 365.933,366.933 365.933,145.067 144.067,145.067 ">
			</polygon>
			<path d="M370.2,153.6h-12.8v-12.8c0-5.12,3.413-8.533,8.533-8.533c3.413,0,6.827,1.707,7.68,5.12c2.56,1.707,5.12,4.267,5.12,7.68 C378.733,150.187,375.32,153.6,370.2,153.6z">
			</path>
			<path d="M365.933,112.64c-5.12,0-8.533-3.413-8.533-8.533V94.72c0-5.12,3.413-8.533,8.533-8.533s8.533,3.413,8.533,8.533v9.387 C374.467,109.227,371.053,112.64,365.933,112.64z M365.933,67.413c-5.12,0-8.533-3.413-8.533-8.533v-9.387 c0-5.12,3.413-8.533,8.533-8.533s8.533,3.413,8.533,8.533v9.387C374.467,63.147,371.053,67.413,365.933,67.413z">
			</path>
			<path d="M365.933,21.333c-3.413,0-6.827-1.707-7.68-5.12c-2.56-1.707-5.12-4.267-5.12-7.68c0-5.12,3.413-8.533,8.533-8.533h12.8 v12.8C374.467,17.92,371.053,21.333,365.933,21.333z">
			</path>
			<path d="M325.827,17.067h-9.387c-5.12,0-8.533-3.413-8.533-8.533S311.32,0,316.44,0h9.387c5.12,0,8.533,3.413,8.533,8.533 S330.093,17.067,325.827,17.067z M280.6,17.067h-8.533c-5.12,0-8.533-3.413-8.533-8.533S266.947,0,272.067,0h8.533 c5.12,0,8.533,3.413,8.533,8.533S285.72,17.067,280.6,17.067z M236.227,17.067h-9.387c-5.12,0-8.533-3.413-8.533-8.533 S221.72,0,226.84,0h9.387c5.12,0,8.533,3.413,8.533,8.533S240.493,17.067,236.227,17.067z M191,17.067h-9.387 c-5.12,0-8.533-3.413-8.533-8.533S176.493,0,181.613,0H191c5.12,0,8.533,3.413,8.533,8.533S196.12,17.067,191,17.067z M146.627,17.067h-9.387c-5.12,0-8.533-3.413-8.533-8.533S132.12,0,137.24,0h9.387c5.12,0,8.533,3.413,8.533,8.533 S150.893,17.067,146.627,17.067z M101.4,17.067h-8.533c-5.12,0-8.533-3.413-8.533-8.533S87.747,0,92.867,0h8.533 c5.12,0,8.533,3.413,8.533,8.533S106.52,17.067,101.4,17.067z M57.027,17.067H47.64c-5.12,0-8.533-3.413-8.533-8.533 S42.52,0,47.64,0h9.387c5.12,0,8.533,3.413,8.533,8.533S61.293,17.067,57.027,17.067z">
			</path>
			<path d="M7.533,21.333C2.413,21.333-1,17.92-1,12.8V0h12.8c5.12,0,8.533,3.413,8.533,8.533c0,3.413-1.707,6.827-5.12,7.68 C14.36,19.627,10.947,21.333,7.533,21.333z">
			</path>
			<path d="M7.533,335.36c-5.12,0-8.533-3.413-8.533-8.533v-9.387c0-5.12,3.413-8.533,8.533-8.533s8.533,3.413,8.533,8.533v9.387 C16.067,331.093,12.653,335.36,7.533,335.36z M7.533,290.133C2.413,290.133-1,286.72-1,281.6v-8.533 c0-5.12,3.413-8.533,8.533-8.533s8.533,3.413,8.533,8.533v8.533C16.067,286.72,12.653,290.133,7.533,290.133z M7.533,245.76 c-5.12,0-8.533-3.413-8.533-8.533v-9.387c0-5.12,3.413-8.533,8.533-8.533s8.533,3.413,8.533,8.533v9.387 C16.067,241.493,12.653,245.76,7.533,245.76z M7.533,200.533C2.413,200.533-1,197.12-1,192v-9.387c0-5.12,3.413-8.533,8.533-8.533 s8.533,3.413,8.533,8.533V192C16.067,197.12,12.653,200.533,7.533,200.533z M7.533,156.16c-5.12,0-8.533-3.413-8.533-8.533v-9.387 c0-5.12,3.413-8.533,8.533-8.533s8.533,3.413,8.533,8.533v9.387C16.067,151.893,12.653,156.16,7.533,156.16z M7.533,110.933 C2.413,110.933-1,107.52-1,102.4v-8.533c0-5.12,3.413-8.533,8.533-8.533s8.533,3.413,8.533,8.533v8.533 C16.067,107.52,12.653,110.933,7.533,110.933z M7.533,66.56C2.413,66.56-1,63.147-1,58.027V48.64c0-5.12,3.413-8.533,8.533-8.533 s8.533,3.413,8.533,8.533v9.387C16.067,62.293,12.653,66.56,7.533,66.56z">
			</path>
			<path d="M11.8,375.467H-1v-12.8c0-5.12,3.413-8.533,8.533-8.533c3.413,0,6.827,1.707,7.68,5.12c2.56,1.707,5.12,4.267,5.12,7.68 C20.333,372.053,16.92,375.467,11.8,375.467z">
			</path>
			<path d="M103.107,375.467H93.72c-5.12,0-8.533-3.413-8.533-8.533S88.6,358.4,93.72,358.4h9.387c5.12,0,8.533,3.413,8.533,8.533 S108.227,375.467,103.107,375.467z M57.88,375.467h-9.387c-5.12,0-8.533-3.413-8.533-8.533s3.413-8.533,8.533-8.533h9.387 c5.12,0,8.533,3.413,8.533,8.533S62.147,375.467,57.88,375.467z">
			</path>
			<path d="M144.067,379.733c-3.413,0-6.827-1.707-7.68-5.12c-2.56-1.707-5.12-4.267-5.12-7.68c0-5.12,3.413-8.533,8.533-8.533h12.8 v12.8C152.6,376.32,149.187,379.733,144.067,379.733z">
			</path>
			<path d="M144.067,471.04c-5.12,0-8.533-3.413-8.533-8.533v-9.387c0-5.12,3.413-8.533,8.533-8.533c5.12,0,8.533,3.413,8.533,8.533 v9.387C152.6,467.627,149.187,471.04,144.067,471.04z M144.067,425.813c-5.12,0-8.533-3.413-8.533-8.533v-9.387 c0-5.12,3.413-8.533,8.533-8.533c5.12,0,8.533,3.413,8.533,8.533v9.387C152.6,421.547,149.187,425.813,144.067,425.813z">
			</path>
			<path d="M148.333,512h-12.8v-12.8c0-5.12,3.413-8.533,8.533-8.533c3.413,0,6.827,1.707,7.68,5.12c2.56,1.707,5.12,4.267,5.12,7.68 C156.867,508.587,153.453,512,148.333,512z">
			</path>
			<path d="M462.36,512h-9.387c-5.12,0-8.533-3.413-8.533-8.533c0-5.12,3.413-8.533,8.533-8.533h9.387c5.12,0,8.533,3.413,8.533,8.533 C470.893,508.587,466.627,512,462.36,512z M417.133,512H408.6c-5.12,0-8.533-3.413-8.533-8.533c0-5.12,3.413-8.533,8.533-8.533 h8.533c5.12,0,8.533,3.413,8.533,8.533C425.667,508.587,422.253,512,417.133,512z M372.76,512h-9.387 c-5.12,0-8.533-3.413-8.533-8.533c0-5.12,3.413-8.533,8.533-8.533h9.387c5.12,0,8.533,3.413,8.533,8.533 C381.293,508.587,377.027,512,372.76,512z M327.533,512h-9.387c-5.12,0-8.533-3.413-8.533-8.533c0-5.12,3.413-8.533,8.533-8.533 h9.387c5.12,0,8.533,3.413,8.533,8.533C336.067,508.587,332.653,512,327.533,512z M283.16,512h-9.387 c-5.12,0-8.533-3.413-8.533-8.533c0-5.12,3.413-8.533,8.533-8.533h9.387c5.12,0,8.533,3.413,8.533,8.533 C291.693,508.587,287.427,512,283.16,512z M237.933,512H229.4c-5.12,0-8.533-3.413-8.533-8.533c0-5.12,3.413-8.533,8.533-8.533 h8.533c5.12,0,8.533,3.413,8.533,8.533C246.467,508.587,243.053,512,237.933,512z M193.56,512h-9.387 c-5.12,0-8.533-3.413-8.533-8.533c0-5.12,3.413-8.533,8.533-8.533h9.387c5.12,0,8.533,3.413,8.533,8.533 C202.093,508.587,197.827,512,193.56,512z">
			</path>
			<path d="M511,512h-12.8c-5.12,0-8.533-3.413-8.533-8.533c0-3.413,1.707-6.827,5.12-7.68c1.707-2.56,4.267-5.12,7.68-5.12 c5.12,0,8.533,3.413,8.533,8.533V512z">
			</path>
			<path d="M502.467,471.893c-5.12,0-8.533-3.413-8.533-8.533v-9.387c0-5.12,3.413-8.533,8.533-8.533c5.12,0,8.533,3.413,8.533,8.533 v9.387C511,467.627,507.587,471.893,502.467,471.893z M502.467,426.667c-5.12,0-8.533-3.413-8.533-8.533V409.6 c0-5.12,3.413-8.533,8.533-8.533c5.12,0,8.533,3.413,8.533,8.533v8.533C511,423.253,507.587,426.667,502.467,426.667z M502.467,382.293c-5.12,0-8.533-3.413-8.533-8.533v-9.387c0-5.12,3.413-8.533,8.533-8.533c5.12,0,8.533,3.413,8.533,8.533v9.387 C511,378.027,507.587,382.293,502.467,382.293z M502.467,337.067c-5.12,0-8.533-3.413-8.533-8.533v-9.387 c0-5.12,3.413-8.533,8.533-8.533c5.12,0,8.533,3.413,8.533,8.533v9.387C511,333.653,507.587,337.067,502.467,337.067z M502.467,292.693c-5.12,0-8.533-3.413-8.533-8.533v-9.387c0-5.12,3.413-8.533,8.533-8.533c5.12,0,8.533,3.413,8.533,8.533v9.387 C511,288.427,507.587,292.693,502.467,292.693z M502.467,247.467c-5.12,0-8.533-3.413-8.533-8.533V230.4 c0-5.12,3.413-8.533,8.533-8.533c5.12,0,8.533,3.413,8.533,8.533v8.533C511,244.053,507.587,247.467,502.467,247.467z M502.467,203.093c-5.12,0-8.533-3.413-8.533-8.533v-9.387c0-5.12,3.413-8.533,8.533-8.533c5.12,0,8.533,3.413,8.533,8.533v9.387 C511,198.827,507.587,203.093,502.467,203.093z">
			</path>
			<path d="M502.467,157.867c-3.413,0-6.827-1.707-7.68-5.12c-2.56-1.707-5.12-4.267-5.12-7.68c0-5.12,3.413-8.533,8.533-8.533H511 v12.8C511,154.453,507.587,157.867,502.467,157.867z">
			</path>
			<path d="M461.507,153.6h-9.387c-5.12,0-8.533-3.413-8.533-8.533c0-5.12,3.413-8.533,8.533-8.533h9.387 c5.12,0,8.533,3.413,8.533,8.533C470.04,150.187,466.627,153.6,461.507,153.6z M416.28,153.6h-9.387 c-5.12,0-8.533-3.413-8.533-8.533c0-5.12,3.413-8.533,8.533-8.533h9.387c5.12,0,8.533,3.413,8.533,8.533 C424.813,150.187,420.547,153.6,416.28,153.6z">
			</path>
			<path d="M374.467,375.467H135.533V136.533h238.933V375.467z M152.6,358.4h204.8V153.6H152.6V358.4z">
			</path>
		</g>
	</g>
</svg>
