<?xml version="1.0" encoding="UTF-8" standalone="no"?>
<!-- Uploaded to: SVG Repo, www.svgrepo.com, Generator: SVG Repo Mixer Tools -->

<svg
   height="24"
   width="24"
   version="1.1"
   id="Layer_1"
   viewBox="0 0 15.36 15.36"
   xml:space="preserve"
   sodipodi:docname="transform-polygon.svg"
   inkscape:version="1.2.2 (732a01da63, 2022-12-09)"
   xmlns:inkscape="http://www.inkscape.org/namespaces/inkscape"
   xmlns:sodipodi="http://sodipodi.sourceforge.net/DTD/sodipodi-0.dtd"
   xmlns="http://www.w3.org/2000/svg"
   xmlns:svg="http://www.w3.org/2000/svg"><sodipodi:namedview
   id="namedview270"
   pagecolor="#ffffff"
   bordercolor="#000000"
   borderopacity="0.25"
   inkscape:showpageshadow="2"
   inkscape:pageopacity="0.0"
   inkscape:pagecheckerboard="0"
   inkscape:deskcolor="#d1d1d1"
   showgrid="false"
   inkscape:zoom="24.918443"
   inkscape:cx="20.446703"
   inkscape:cy="13.082679"
   inkscape:window-width="1920"
   inkscape:window-height="1046"
   inkscape:window-x="-11"
   inkscape:window-y="1609"
   inkscape:window-maximized="1"
   inkscape:current-layer="Layer_1" /><defs
   id="defs130" />
<g
   transform="matrix(0.03,0,0,0.03,0.03,0)"
   id="g125">
	<g
   id="g73">
		<path
   style="fill:#7383bf"
   d="m 41.667,460.8 c -5.12,0 -8.533,-3.413 -8.533,-8.533 v -8.533 c 0,-5.12 3.413,-8.533 8.533,-8.533 5.12,0 8.533,3.413 8.533,8.533 v 8.533 c 0,5.12 -3.413,8.533 -8.533,8.533 z m 0,-42.667 c -5.12,0 -8.533,-3.413 -8.533,-8.533 v -8.533 c 0,-5.12 3.413,-8.533 8.533,-8.533 5.12,0 8.533,3.413 8.533,8.533 v 8.533 c 0,5.12 -3.413,8.533 -8.533,8.533 z m 0,-42.666 c -5.12,0 -8.533,-3.413 -8.533,-8.533 V 358.4 c 0,-5.12 3.413,-8.533 8.533,-8.533 5.12,0 8.533,3.413 8.533,8.533 v 8.533 c 0,5.12 -3.413,8.534 -8.533,8.534 z m 0,-42.667 c -5.12,0 -8.533,-3.413 -8.533,-8.533 v -8.533 c 0,-5.12 3.413,-8.533 8.533,-8.533 5.12,0 8.533,3.413 8.533,8.533 v 8.533 c 0,5.12 -3.413,8.533 -8.533,8.533 z m 0,-42.667 c -5.12,0 -8.533,-3.413 -8.533,-8.533 v -8.533 c 0,-5.12 3.413,-8.533 8.533,-8.533 5.12,0 8.533,3.413 8.533,8.533 v 8.533 c 0,5.12 -3.413,8.533 -8.533,8.533 z m 0,-42.666 c -5.12,0 -8.533,-3.413 -8.533,-8.533 V 230.4 c 0,-5.12 3.413,-8.533 8.533,-8.533 5.12,0 8.533,3.413 8.533,8.533 v 8.533 c 0,5.12 -3.413,8.534 -8.533,8.534 z m 0,-42.667 c -5.12,0 -8.533,-3.413 -8.533,-8.533 v -8.533 c 0,-5.12 3.413,-8.533 8.533,-8.533 5.12,0 8.533,3.413 8.533,8.533 v 8.533 c 0,5.12 -3.413,8.533 -8.533,8.533 z m 0,-42.667 c -5.12,0 -8.533,-3.413 -8.533,-8.533 v -8.533 c 0,-5.12 3.413,-8.533 8.533,-8.533 5.12,0 8.533,3.413 8.533,8.533 v 8.533 c 0,5.12 -3.413,8.533 -8.533,8.533 z m 0,-42.666 c -5.12,0 -8.533,-3.413 -8.533,-8.533 V 102.4 c 0,-5.12 3.413,-8.533 8.533,-8.533 5.12,0 8.533,3.413 8.533,8.533 v 8.533 c 0,5.12 -3.413,8.534 -8.533,8.534 z m 0,-42.667 c -5.12,0 -8.533,-3.413 -8.533,-8.533 v -8.533 c 0,-5.12 3.413,-8.533 8.533,-8.533 5.12,0 8.533,3.413 8.533,8.533 v 8.533 c 0,5.12 -3.413,8.533 -8.533,8.533 z"
   id="path67" />
		<path
   style="fill:#7383bf"
   d="m 451.267,51.2 h -8.533 c -5.12,0 -8.533,-3.413 -8.533,-8.533 0,-5.12 3.413,-8.533 8.533,-8.533 h 8.533 c 5.12,0 8.533,3.413 8.533,8.533 0,5.12 -3.413,8.533 -8.533,8.533 z m -42.667,0 h -8.533 c -5.12,0 -8.533,-3.413 -8.533,-8.533 0,-5.12 3.413,-8.533 8.533,-8.533 h 8.533 c 5.12,0 8.533,3.413 8.533,8.533 0,5.12 -3.413,8.533 -8.533,8.533 z m -42.667,0 H 357.4 c -5.12,0 -8.533,-3.413 -8.533,-8.533 0,-5.12 3.413,-8.533 8.533,-8.533 h 8.533 c 5.12,0 8.533,3.413 8.533,8.533 0,5.12 -3.413,8.533 -8.533,8.533 z m -42.666,0 h -8.533 c -5.12,0 -8.533,-3.413 -8.533,-8.533 0,-5.12 3.413,-8.533 8.533,-8.533 h 8.533 c 5.12,0 8.533,3.413 8.533,8.533 0,5.12 -3.413,8.533 -8.533,8.533 z m -42.667,0 h -8.533 c -5.12,0 -8.533,-3.413 -8.533,-8.533 0,-5.12 3.413,-8.533 8.533,-8.533 h 8.533 c 5.12,0 8.533,3.413 8.533,8.533 0,5.12 -3.413,8.533 -8.533,8.533 z m -42.667,0 H 229.4 c -5.12,0 -8.533,-3.413 -8.533,-8.533 0,-5.12 3.413,-8.533 8.533,-8.533 h 8.533 c 5.12,0 8.533,3.413 8.533,8.533 0,5.12 -3.413,8.533 -8.533,8.533 z m -42.666,0 h -8.533 c -5.12,0 -8.533,-3.413 -8.533,-8.533 0,-5.12 3.413,-8.533 8.533,-8.533 h 8.533 c 5.12,0 8.533,3.413 8.533,8.533 0,5.12 -3.413,8.533 -8.533,8.533 z m -42.667,0 h -8.533 c -5.12,0 -8.533,-3.413 -8.533,-8.533 0,-5.12 3.413,-8.533 8.533,-8.533 h 8.533 c 5.12,0 8.533,3.413 8.533,8.533 0,5.12 -3.413,8.533 -8.533,8.533 z m -42.667,0 H 101.4 c -5.12,0 -8.533,-3.413 -8.533,-8.533 0,-5.12 3.413,-8.533 8.533,-8.533 h 8.533 c 5.12,0 8.533,3.413 8.533,8.533 0,5.12 -3.413,8.533 -8.533,8.533 z m -42.666,0 h -8.533 c -5.12,0 -8.533,-3.413 -8.533,-8.533 0,-5.12 3.413,-8.533 8.533,-8.533 h 8.533 c 5.12,0 8.533,3.413 8.533,8.533 0,5.12 -3.413,8.533 -8.533,8.533 z"
   id="path69" />
		<path
   style="fill:#7383bf"
   d="m 485.4,460.8 c -5.12,0 -8.533,-3.413 -8.533,-8.533 v -8.533 c 0,-5.12 3.413,-8.533 8.533,-8.533 5.12,0 8.533,3.413 8.533,8.533 v 8.533 c 0,5.12 -3.413,8.533 -8.533,8.533 z m 0,-42.667 c -5.12,0 -8.533,-3.413 -8.533,-8.533 v -8.533 c 0,-5.12 3.413,-8.533 8.533,-8.533 5.12,0 8.533,3.413 8.533,8.533 v 8.533 c 0,5.12 -3.413,8.533 -8.533,8.533 z m 0,-42.666 c -5.12,0 -8.533,-3.413 -8.533,-8.533 V 358.4 c 0,-5.12 3.413,-8.533 8.533,-8.533 5.12,0 8.533,3.413 8.533,8.533 v 8.533 c 0,5.12 -3.413,8.534 -8.533,8.534 z m 0,-42.667 c -5.12,0 -8.533,-3.413 -8.533,-8.533 v -8.533 c 0,-5.12 3.413,-8.533 8.533,-8.533 5.12,0 8.533,3.413 8.533,8.533 v 8.533 c 0,5.12 -3.413,8.533 -8.533,8.533 z m 0,-42.667 c -5.12,0 -8.533,-3.413 -8.533,-8.533 v -8.533 c 0,-5.12 3.413,-8.533 8.533,-8.533 5.12,0 8.533,3.413 8.533,8.533 v 8.533 c 0,5.12 -3.413,8.533 -8.533,8.533 z m 0,-42.666 c -5.12,0 -8.533,-3.413 -8.533,-8.533 V 230.4 c 0,-5.12 3.413,-8.533 8.533,-8.533 5.12,0 8.533,3.413 8.533,8.533 v 8.533 c 0,5.12 -3.413,8.534 -8.533,8.534 z m 0,-42.667 c -5.12,0 -8.533,-3.413 -8.533,-8.533 v -8.533 c 0,-5.12 3.413,-8.533 8.533,-8.533 5.12,0 8.533,3.413 8.533,8.533 v 8.533 c 0,5.12 -3.413,8.533 -8.533,8.533 z m 0,-42.667 c -5.12,0 -8.533,-3.413 -8.533,-8.533 v -8.533 c 0,-5.12 3.413,-8.533 8.533,-8.533 5.12,0 8.533,3.413 8.533,8.533 v 8.533 c 0,5.12 -3.413,8.533 -8.533,8.533 z m 0,-42.666 c -5.12,0 -8.533,-3.413 -8.533,-8.533 V 102.4 c 0,-5.12 3.413,-8.533 8.533,-8.533 5.12,0 8.533,3.413 8.533,8.533 v 8.533 c 0,5.12 -3.413,8.534 -8.533,8.534 z m 0,-42.667 c -5.12,0 -8.533,-3.413 -8.533,-8.533 v -8.533 c 0,-5.12 3.413,-8.533 8.533,-8.533 5.12,0 8.533,3.413 8.533,8.533 v 8.533 c 0,5.12 -3.413,8.533 -8.533,8.533 z"
   id="path71" />
	</g>
	<polygon
   style="fill:#ffffff"
   points="459.8,477.867 459.8,452.267 383,256 331.8,256 331.8,230.4 195.267,230.4 195.267,256 144.067,256 67.267,452.267 67.267,477.867 "
   id="polygon75" />
	<path
   style="fill:#7383bf"
   d="m 468.333,486.4 h -409.6 v -35.84 l 79.36,-203.093 h 48.64 v -25.6 h 153.6 v 25.6 h 48.64 l 79.36,203.093 z M 75.8,469.333 h 375.467 v -15.36 l -74.24,-189.44 h -53.76 v -25.6 H 203.8 v 25.6 H 150.04 L 75.8,453.973 Z"
   id="path77" />
	<g
   id="g103">
		<polygon
   style="fill:#556080"
   points="7.533,59.733 58.733,59.733 58.733,8.533 7.533,8.533 "
   id="polygon79" />
		<path
   style="fill:#556080"
   d="M 67.267,68.267 H -1 V 0 H 67.267 Z M 16.067,51.2 H 50.2 V 17.067 H 16.067 Z"
   id="path81" />
		<polygon
   style="fill:#556080"
   points="451.267,59.733 502.467,59.733 502.467,8.533 451.267,8.533 "
   id="polygon83" />
		<path
   style="fill:#556080"
   d="M 511,68.267 H 442.733 V 0 H 511 Z M 459.8,51.2 h 34.133 V 17.067 H 459.8 Z"
   id="path85" />
		<polygon
   style="fill:#556080"
   points="7.533,503.467 58.733,503.467 58.733,452.267 7.533,452.267 "
   id="polygon87" />
		<path
   style="fill:#556080"
   d="M 67.267,512 H -1 v -68.267 h 68.267 z m -51.2,-17.067 H 50.2 V 460.8 H 16.067 Z"
   id="path89" />
		<polygon
   style="fill:#556080"
   points="451.267,503.467 502.467,503.467 502.467,452.267 451.267,452.267 "
   id="polygon91" />
		<path
   style="fill:#556080"
   d="M 511,512 H 442.733 V 443.733 H 511 Z m -51.2,-17.067 h 34.133 V 460.8 H 459.8 Z"
   id="path93" />
		<polygon
   style="fill:#556080"
   points="135.533,256 186.733,256 186.733,204.8 135.533,204.8 "
   id="polygon95" />
		<path
   style="fill:#556080"
   d="M 195.267,264.533 H 127 v -68.267 h 68.267 z m -51.2,-17.066 H 178.2 v -34.133 h -34.133 z"
   id="path97" />
		<polygon
   style="fill:#556080"
   points="323.267,256 374.467,256 374.467,204.8 323.267,204.8 "
   id="polygon99" />
		<path
   style="fill:#556080"
   d="M 383,264.533 H 314.733 V 196.266 H 383 Z m -51.2,-17.066 h 34.133 V 213.334 H 331.8 Z"
   id="path101" />
	</g>
	<path
   d="M 67.267,68.267 H -1 V 0 H 67.267 Z M 16.067,51.2 H 50.2 V 17.067 H 16.067 Z"
   id="path105" />
	<path
   d="M 511,68.267 H 442.733 V 0 H 511 Z M 459.8,51.2 h 34.133 V 17.067 H 459.8 Z"
   id="path107" />
	<path
   d="M 67.267,512 H -1 v -68.267 h 68.267 z m -51.2,-17.067 H 50.2 V 460.8 H 16.067 Z"
   id="path109" />
	<path
   d="M 511,512 H 442.733 V 443.733 H 511 Z m -51.2,-17.067 h 34.133 V 460.8 H 459.8 Z"
   id="path111" />
	<path
   d="m 33.133,460.8 c -5.12,0 -8.533,-3.413 -8.533,-8.533 v -8.533 c 0,-5.12 3.413,-8.533 8.533,-8.533 5.12,0 8.533,3.413 8.533,8.533 v 8.533 c 0.001,5.12 -3.413,8.533 -8.533,8.533 z m 0,-42.667 c -5.12,0 -8.533,-3.413 -8.533,-8.533 v -8.533 c 0,-5.12 3.413,-8.533 8.533,-8.533 5.12,0 8.533,3.413 8.533,8.533 v 8.533 c 0.001,5.12 -3.413,8.533 -8.533,8.533 z m 0,-42.666 c -5.12,0 -8.533,-3.413 -8.533,-8.533 V 358.4 c 0,-5.12 3.413,-8.533 8.533,-8.533 5.12,0 8.533,3.413 8.533,8.533 v 8.533 c 0.001,5.12 -3.413,8.534 -8.533,8.534 z m 0,-42.667 c -5.12,0 -8.533,-3.413 -8.533,-8.533 v -8.533 c 0,-5.12 3.413,-8.533 8.533,-8.533 5.12,0 8.533,3.413 8.533,8.533 v 8.533 c 0.001,5.12 -3.413,8.533 -8.533,8.533 z m 0,-42.667 c -5.12,0 -8.533,-3.413 -8.533,-8.533 v -8.533 c 0,-5.12 3.413,-8.533 8.533,-8.533 5.12,0 8.533,3.413 8.533,8.533 v 8.533 c 0.001,5.12 -3.413,8.533 -8.533,8.533 z m 0,-42.666 c -5.12,0 -8.533,-3.413 -8.533,-8.533 V 230.4 c 0,-5.12 3.413,-8.533 8.533,-8.533 5.12,0 8.533,3.413 8.533,8.533 v 8.533 c 0.001,5.12 -3.413,8.534 -8.533,8.534 z m 0,-42.667 c -5.12,0 -8.533,-3.413 -8.533,-8.533 v -8.533 c 0,-5.12 3.413,-8.533 8.533,-8.533 5.12,0 8.533,3.413 8.533,8.533 v 8.533 c 0.001,5.12 -3.413,8.533 -8.533,8.533 z m 0,-42.667 c -5.12,0 -8.533,-3.413 -8.533,-8.533 v -8.533 c 0,-5.12 3.413,-8.533 8.533,-8.533 5.12,0 8.533,3.413 8.533,8.533 v 8.533 c 0.001,5.12 -3.413,8.533 -8.533,8.533 z m 0,-42.666 c -5.12,0 -8.533,-3.413 -8.533,-8.533 V 102.4 c 0,-5.12 3.413,-8.533 8.533,-8.533 5.12,0 8.533,3.413 8.533,8.533 v 8.533 c 0.001,5.12 -3.413,8.534 -8.533,8.534 z m 0,-42.667 c -5.12,0 -8.533,-3.413 -8.533,-8.533 v -8.533 c 0,-5.12 3.413,-8.533 8.533,-8.533 5.12,0 8.533,3.413 8.533,8.533 v 8.533 c 0.001,5.12 -3.413,8.533 -8.533,8.533 z"
   id="path113" />
	<path
   d="m 451.267,42.667 h -8.533 c -5.12,0 -8.533,-3.413 -8.533,-8.533 0,-5.12 3.413,-8.533 8.533,-8.533 h 8.533 c 5.12,0 8.533,3.413 8.533,8.533 0,5.12 -3.413,8.533 -8.533,8.533 z m -42.667,0 h -8.533 c -5.12,0 -8.533,-3.413 -8.533,-8.533 0,-5.12 3.413,-8.533 8.533,-8.533 h 8.533 c 5.12,0 8.533,3.413 8.533,8.533 0,5.12 -3.413,8.533 -8.533,8.533 z m -42.667,0 H 357.4 c -5.12,0 -8.533,-3.413 -8.533,-8.533 0,-5.12 3.413,-8.534 8.533,-8.534 h 8.533 c 5.12,0 8.533,3.413 8.533,8.533 0,5.12 -3.413,8.534 -8.533,8.534 z m -42.666,0 h -8.533 c -5.12,0 -8.533,-3.413 -8.533,-8.533 0,-5.12 3.413,-8.533 8.533,-8.533 h 8.533 c 5.12,0 8.533,3.413 8.533,8.533 0,5.12 -3.413,8.533 -8.533,8.533 z m -42.667,0 h -8.533 c -5.12,0 -8.533,-3.413 -8.533,-8.533 0,-5.12 3.413,-8.533 8.533,-8.533 h 8.533 c 5.12,0 8.533,3.413 8.533,8.533 0,5.12 -3.413,8.533 -8.533,8.533 z m -42.667,0 H 229.4 c -5.12,0 -8.533,-3.413 -8.533,-8.533 0,-5.12 3.413,-8.534 8.533,-8.534 h 8.533 c 5.12,0 8.533,3.413 8.533,8.533 0,5.12 -3.413,8.534 -8.533,8.534 z m -42.666,0 h -8.533 c -5.12,0 -8.533,-3.413 -8.533,-8.533 0,-5.12 3.413,-8.533 8.533,-8.533 h 8.533 c 5.12,0 8.533,3.413 8.533,8.533 0,5.12 -3.413,8.533 -8.533,8.533 z m -42.667,0 h -8.533 c -5.12,0 -8.533,-3.413 -8.533,-8.533 0,-5.12 3.413,-8.533 8.533,-8.533 h 8.533 c 5.12,0 8.533,3.413 8.533,8.533 0,5.12 -3.413,8.533 -8.533,8.533 z m -42.667,0 H 101.4 c -5.12,0 -8.533,-3.413 -8.533,-8.533 0,-5.12 3.413,-8.534 8.533,-8.534 h 8.533 c 5.12,0 8.533,3.413 8.533,8.533 0,5.12 -3.413,8.534 -8.533,8.534 z m -42.666,0 h -8.533 c -5.12,0 -8.533,-3.413 -8.533,-8.533 0,-5.12 3.413,-8.533 8.533,-8.533 h 8.533 c 5.12,0 8.533,3.413 8.533,8.533 0,5.12 -3.413,8.533 -8.533,8.533 z"
   id="path115" />
	<path
   d="m 476.867,460.8 c -5.12,0 -8.533,-3.413 -8.533,-8.533 v -8.533 c 0,-5.12 3.413,-8.533 8.533,-8.533 5.12,0 8.533,3.413 8.533,8.533 v 8.533 c 0,5.12 -3.413,8.533 -8.533,8.533 z m 0,-42.667 c -5.12,0 -8.533,-3.413 -8.533,-8.533 v -8.533 c 0,-5.12 3.413,-8.533 8.533,-8.533 5.12,0 8.533,3.413 8.533,8.533 v 8.533 c 0,5.12 -3.413,8.533 -8.533,8.533 z m 0,-42.666 c -5.12,0 -8.533,-3.413 -8.533,-8.533 V 358.4 c 0,-5.12 3.413,-8.533 8.533,-8.533 5.12,0 8.533,3.413 8.533,8.533 v 8.533 c 0,5.12 -3.413,8.534 -8.533,8.534 z m 0,-42.667 c -5.12,0 -8.533,-3.413 -8.533,-8.533 v -8.533 c 0,-5.12 3.413,-8.533 8.533,-8.533 5.12,0 8.533,3.413 8.533,8.533 v 8.533 c 0,5.12 -3.413,8.533 -8.533,8.533 z m 0,-42.667 c -5.12,0 -8.533,-3.413 -8.533,-8.533 v -8.533 c 0,-5.12 3.413,-8.533 8.533,-8.533 5.12,0 8.533,3.413 8.533,8.533 v 8.533 c 0,5.12 -3.413,8.533 -8.533,8.533 z m 0,-42.666 c -5.12,0 -8.533,-3.413 -8.533,-8.533 V 230.4 c 0,-5.12 3.413,-8.533 8.533,-8.533 5.12,0 8.533,3.413 8.533,8.533 v 8.533 c 0,5.12 -3.413,8.534 -8.533,8.534 z m 0,-42.667 c -5.12,0 -8.533,-3.413 -8.533,-8.533 v -8.533 c 0,-5.12 3.413,-8.533 8.533,-8.533 5.12,0 8.533,3.413 8.533,8.533 v 8.533 c 0,5.12 -3.413,8.533 -8.533,8.533 z m 0,-42.667 c -5.12,0 -8.533,-3.413 -8.533,-8.533 v -8.533 c 0,-5.12 3.413,-8.533 8.533,-8.533 5.12,0 8.533,3.413 8.533,8.533 v 8.533 c 0,5.12 -3.413,8.533 -8.533,8.533 z m 0,-42.666 c -5.12,0 -8.533,-3.413 -8.533,-8.533 V 102.4 c 0,-5.12 3.413,-8.533 8.533,-8.533 5.12,0 8.533,3.413 8.533,8.533 v 8.533 c 0,5.12 -3.413,8.534 -8.533,8.534 z m 0,-42.667 c -5.12,0 -8.533,-3.413 -8.533,-8.533 v -8.533 c 0,-5.12 3.413,-8.533 8.533,-8.533 5.12,0 8.533,3.413 8.533,8.533 v 8.533 c 0,5.12 -3.413,8.533 -8.533,8.533 z"
   id="path117" />
	<path
   d="M 195.267,264.533 H 127 v -68.267 h 68.267 z m -51.2,-17.066 H 178.2 v -34.133 h -34.133 z"
   id="path119" />
	<path
   d="M 383,264.533 H 314.733 V 196.266 H 383 Z m -51.2,-17.066 h 34.133 V 213.334 H 331.8 Z"
   id="path121" />
	<path
   d="M 459.8,486.4 H 50.2 v -35.84 l 79.36,-203.093 h 48.64 v -25.6 h 153.6 v 25.6 h 48.64 L 459.8,450.56 Z M 67.267,469.333 h 375.467 v -15.36 l -74.24,-189.44 h -53.76 v -25.6 H 195.267 v 25.6 h -53.76 l -74.24,189.44 z"
   id="path123" />
</g>
</svg>
